<svg width="48" height="48" viewBox="0 0 48 48" fill="none" xmlns="http://www.w3.org/2000/svg">
<rect width="48" height="48" rx="24" fill="#D6E1FF"/>
<path d="M32.6474 15.1982C32.47 15.0443 32.2343 14.975 32.0017 15.0081L20.6542 16.6292C20.2549 16.6862 19.9583 17.0282 19.9583 17.4316V20.6738V26.9347C19.4782 26.655 18.9208 26.4939 18.3263 26.4939C16.5326 26.4939 15.0732 27.9532 15.0732 29.747C15.0732 31.5407 16.5325 33 18.3263 33C20.12 33 21.5793 31.5407 21.5793 29.747V21.3767L31.3057 19.9873V25.3136C30.8256 25.0339 30.2683 24.8728 29.6737 24.8728C27.88 24.8728 26.4207 26.3322 26.4207 28.1259C26.4207 29.9196 27.88 31.3789 29.6737 31.3789C31.4675 31.3789 32.9268 29.9196 32.9268 28.1259V19.0527V15.8105C32.9268 15.5755 32.8249 15.3522 32.6474 15.1982Z" fill="#717FA6"/>
</svg>
